<?xml version="1.0" encoding="UTF-8" standalone="no"?>
<svg
   xmlns:dc="http://purl.org/dc/elements/1.1/"
   xmlns:cc="http://creativecommons.org/ns#"
   xmlns:rdf="http://www.w3.org/1999/02/22-rdf-syntax-ns#"
   xmlns:svg="http://www.w3.org/2000/svg"
   xmlns="http://www.w3.org/2000/svg"
   xmlns:sodipodi="http://sodipodi.sourceforge.net/DTD/sodipodi-0.dtd"
   xmlns:inkscape="http://www.inkscape.org/namespaces/inkscape"
   width="210mm"
   height="297mm"
   viewBox="0 0 210 297"
   version="1.1"
   id="svg3403"
   inkscape:version="1.0.2 (e86c870879, 2021-01-15)"
   sodipodi:docname="foot_unit_size_and_detail_placements.svg">
  <defs
     id="defs3397" />
  <sodipodi:namedview
     id="base"
     pagecolor="#ffffff"
     bordercolor="#666666"
     borderopacity="1.0"
     inkscape:pageopacity="0.0"
     inkscape:pageshadow="2"
     inkscape:zoom="0.73048654"
     inkscape:cx="363.56716"
     inkscape:cy="470.37217"
     inkscape:document-units="px"
     inkscape:current-layer="layer1"
     inkscape:document-rotation="0"
     showgrid="false"
     inkscape:window-width="1343"
     inkscape:window-height="908"
     inkscape:window-x="577"
     inkscape:window-y="99"
     inkscape:window-maximized="0" />
  <metadata
     id="metadata3400">
    <rdf:RDF>
      <cc:Work
         rdf:about="">
        <dc:format>image/svg+xml</dc:format>
        <dc:type
           rdf:resource="http://purl.org/dc/dcmitype/StillImage" />
        <dc:title></dc:title>
      </cc:Work>
    </rdf:RDF>
  </metadata>
  <g
     inkscape:label="Layer 1"
     inkscape:groupmode="layer"
     id="layer1">
    <rect
       style="font-variation-settings:normal;display:inline;vector-effect:none;fill:none;fill-opacity:1;fill-rule:evenodd;stroke:#ff00ff;stroke-width:0.264583;stroke-linecap:butt;stroke-linejoin:miter;stroke-miterlimit:4;stroke-dasharray:none;stroke-dashoffset:0;stroke-opacity:1;stop-color:#000000"
       id="rect2997"
       width="95.514587"
       height="42.597919"
       x="9.2423182"
       y="49.77877"
       inkscape:export-xdpi="96.000023"
       inkscape:export-ydpi="96.000023" />
    <rect
       style="font-variation-settings:normal;display:inline;vector-effect:none;fill:#ff7f2a;fill-opacity:1;fill-rule:evenodd;stroke:#000000;stroke-width:0.264582;stroke-linecap:butt;stroke-linejoin:miter;stroke-miterlimit:4;stroke-dasharray:none;stroke-dashoffset:0;stroke-opacity:1;stop-color:#000000"
       id="rect3304"
       width="10.318751"
       height="1.3229181"
       x="76.501678"
       y="-38.346489"
       transform="rotate(90)" />
    <rect
       style="font-variation-settings:normal;display:inline;vector-effect:none;fill:#cccccc;fill-opacity:1;fill-rule:evenodd;stroke:#000000;stroke-width:0.264582;stroke-linecap:butt;stroke-linejoin:miter;stroke-miterlimit:4;stroke-dasharray:none;stroke-dashoffset:0;stroke-opacity:1;stop-color:#000000"
       id="rect3300"
       width="15.610419"
       height="1.3229181"
       x="71.210022"
       y="-38.346489"
       transform="rotate(90)" />
    <path
       id="rect30396"
       style="font-variation-settings:normal;display:inline;vector-effect:none;fill:#ff0000;fill-opacity:1;fill-rule:evenodd;stroke:none;stroke-width:0.264583;stroke-linecap:butt;stroke-linejoin:miter;stroke-miterlimit:4;stroke-dasharray:none;stroke-dashoffset:0;stroke-opacity:1;stop-color:#000000"
       d="m 88.749627,76.104798 h -0.264584 v 0.26458 h 0.264584 z m -0.264588,-0.26459 h -0.264583 v 0.26459 h 0.264583 z m -0.26458,-0.26458 h -0.264583 v 0.26458 h 0.264583 z m -0.264587,-0.26458 h -0.264583 v 0.26458 h 0.264583 z m -0.26458,-0.26459 h -0.264583 v 0.26459 h 0.264583 z m -0.264587,-0.26458 h -0.264583 v 0.26458 h 0.264583 z m -0.26458,-0.26458 h -0.264583 v 0.26458 h 0.264583 z m -0.264587,-0.26459 h -0.264584 v 0.26459 h 0.264584 z m -0.26458,-0.26458 h -0.264583 v 0.26458 h 0.264583 z m -0.264587,-0.26458 h -0.264584 v 0.26458 h 0.264584 z m -0.26458,-0.26459 h -0.264584 v 0.26459 h 0.264584 z m -0.264588,-0.26458 H 85.57462 v 0.26458 h 0.264583 z m -0.264579,-0.26458 H 85.31004 v 0.26458 h 0.264584 z m -0.264588,-0.26459 h -0.264583 v 0.26459 h 0.264583 z m -0.26458,-0.26458 h -0.264583 v 0.26458 h 0.264583 z m -0.264587,-0.26458 h -0.264583 v 0.26458 h 0.264583 z m -0.26458,-0.26459 h -0.264583 v 0.26459 h 0.264583 z m -0.264587,-0.26458 h -0.264583 v 0.26458 h 0.264583 z m -0.26458,-0.26458 h -0.264583 v 0.26458 h 0.264583 z m -0.264587,-0.26459 h -0.264584 v 0.26459 h 0.264584 z m -0.26458,-0.26458 h -0.264583 v 0.26458 h 0.264583 z m -0.264587,-0.26458 h -0.264584 v 0.26458 h 0.264584 z m -0.26458,-0.26459 h -0.264584 v 0.26459 h 0.264584 z M 82.6642,70.019378 h -0.264583 v 0.26458 H 82.6642 Z m -0.264579,-0.26458 h -0.264584 v 0.26458 h 0.264584 z m -0.264588,-0.26459 H 81.87045 v 0.26459 h 0.264583 z m -0.26458,-0.26458 H 81.60587 v 0.26458 h 0.264583 z m -0.264587,-0.26458 h -0.264583 v 0.26458 h 0.264583 z m -0.26458,-0.26459 h -0.264583 v 0.26459 h 0.264583 z m -0.264587,-0.26458 h -0.264584 v 0.26458 h 0.264584 z m -0.26458,-0.26458 h -0.264583 v 0.26458 h 0.264583 z m -0.264587,-0.26459 h -0.264584 v 0.26459 h 0.264584 z m -0.26458,-0.26458 h -0.264583 v 0.26458 h 0.264583 z m -0.264588,-0.26458 h -0.264583 v 0.26458 h 0.264583 z m -0.264579,-0.26459 h -0.264584 v 0.26459 h 0.264584 z m -0.264588,-0.26458 h -0.264583 v 0.26458 h 0.264583 z m -0.264579,-0.26458 h -0.264584 v 0.26458 h 0.264584 z m -0.264588,-0.26459 h -0.264583 v 0.26459 h 0.264583 z m -0.26458,-0.26458 h -0.264583 v 0.26458 h 0.264583 z m -0.264587,-0.26458 H 78.16628 v 0.26458 h 0.264583 z m -0.26458,-0.26459 H 77.9017 v 0.26459 h 0.264583 z m -0.264587,-0.26458 h -0.264584 v 0.26458 h 0.264584 z m -0.26458,-0.26458 h -0.264583 v 0.26458 h 0.264583 z m -0.264587,-0.26459 h -0.264584 v 0.26459 h 0.264584 z m -0.26458,-0.26458 h -0.264584 v 0.26458 h 0.264584 z m -0.264588,-0.26458 h -0.264583 v 0.26458 h 0.264583 z m -0.264579,-0.26459 h -0.264584 v 0.26459 h 0.264584 z m -0.264588,-0.26458 h -0.264583 v 0.26458 h 0.264583 z m -0.26458,-0.26458 h -0.264583 v 0.26458 h 0.264583 z m -0.264587,-0.26459 h -0.264583 v 0.26459 h 0.264583 z m -0.26458,-0.26458 h -0.264583 v 0.26458 h 0.264583 z m -0.264587,-0.26458 h -0.264583 v 0.26458 h 0.264583 z m -0.26458,-0.26459 h -0.264583 v 0.26459 h 0.264583 z m -0.264587,-0.26458 h -0.264584 v 0.26458 h 0.264584 z m -0.26458,-0.26458 H 74.19753 v 0.26458 h 0.264583 z m -0.264587,-0.26459 h -0.264584 v 0.26459 h 0.264584 z m -0.26458,-0.26458 h -0.264584 v 0.26458 h 0.264584 z m -0.264588,-0.26458 h -0.264583 v 0.26458 h 0.264583 z m -0.264579,-0.26459 h -0.264584 v 0.26459 h 0.264584 z m 15.34584,15.87499 h -0.264583 v -0.26458 h 0.264583 z m -0.26458,0.26459 h -0.264583 v -0.26459 h 0.264583 z m -0.264587,0.26458 h -0.264583 v -0.26458 h 0.264583 z m -0.26458,0.26458 h -0.264583 v -0.26458 h 0.264583 z m -0.264587,0.26459 h -0.264584 v -0.26459 h 0.264584 z m -0.26458,0.26458 h -0.264583 v -0.26458 h 0.264583 z m -0.264587,0.26459 h -0.264584 v -0.26459 h 0.264584 z m -0.26458,0.26458 h -0.264584 v -0.26458 h 0.264584 z m -0.264588,0.26458 h -0.264583 v -0.26458 h 0.264583 z m -0.264579,0.26459 h -0.264584 v -0.26459 h 0.264584 z m -0.264588,0.26458 H 85.8392 v -0.26458 h 0.264583 z m -0.26458,0.26458 H 85.57462 v -0.26458 h 0.264583 z m -0.264587,0.26458 h -0.264583 v -0.26458 h 0.264583 z m -0.26458,0.26459 h -0.264583 v -0.26458 h 0.264583 z m -0.264587,0.26458 h -0.264584 v -0.26458 h 0.264584 z m -0.26458,0.26459 h -0.264583 v -0.26459 h 0.264583 z m -0.264587,0.26458 h -0.264584 v -0.26458 h 0.264584 z m -0.26458,0.26458 h -0.264583 v -0.26458 h 0.264583 z m -0.264588,0.26459 h -0.264583 v -0.26459 h 0.264583 z m -0.264579,0.26458 h -0.264584 v -0.26458 h 0.264584 z m -0.264588,0.26458 h -0.264583 v -0.26458 h 0.264583 z m -0.264579,0.26459 h -0.264584 v -0.26459 h 0.264584 z m -0.264588,0.26458 h -0.264583 v -0.26458 h 0.264583 z m -0.26458,0.26458 h -0.264583 v -0.26458 H 82.6642 Z m -0.264587,0.26459 H 82.13503 v -0.26459 h 0.264583 z m -0.26458,0.26458 H 81.87045 v -0.26458 h 0.264583 z m -0.264587,0.26458 h -0.264584 v -0.26458 h 0.264584 z m -0.26458,0.26459 h -0.264583 v -0.26459 h 0.264583 z m -0.264587,0.26458 h -0.264584 v -0.26458 h 0.264584 z m -0.26458,0.26458 h -0.264584 v -0.26458 h 0.264584 z m -0.264588,0.26459 h -0.264583 v -0.26459 h 0.264583 z m -0.264579,0.26458 h -0.264584 v -0.26458 h 0.264584 z m -0.264588,0.26458 h -0.264583 v -0.26458 h 0.264583 z m -0.26458,0.26459 h -0.264583 v -0.26459 h 0.264583 z m -0.264587,0.26458 h -0.264583 v -0.26458 h 0.264583 z m -0.26458,0.26458 h -0.264583 v -0.26458 h 0.264583 z m -0.264587,0.26459 h -0.264583 v -0.26459 h 0.264583 z m -0.26458,0.26458 h -0.264583 v -0.26458 h 0.264583 z m -0.264587,0.26458 h -0.264584 v -0.26458 h 0.264584 z m -0.26458,0.26459 H 78.16628 v -0.26459 h 0.264583 z m -0.264587,0.26458 h -0.264584 v -0.26458 h 0.264584 z m -0.26458,0.26458 h -0.264584 v -0.26458 h 0.264584 z m -0.264588,0.26459 h -0.264583 v -0.26459 h 0.264583 z m -0.264579,0.26458 h -0.264584 v -0.26458 h 0.264584 z m -0.264588,0.26458 h -0.264583 v -0.26458 h 0.264583 z m -0.26458,0.26459 h -0.264583 v -0.26459 h 0.264583 z m -0.264587,0.26458 h -0.264583 v -0.26458 h 0.264583 z m -0.26458,0.26458 h -0.264583 v -0.26458 h 0.264583 z m -0.264587,0.26459 h -0.264583 v -0.26459 h 0.264583 z m -0.26458,0.26458 h -0.264583 v -0.26458 h 0.264583 z m -0.264587,0.26458 h -0.264584 v -0.26458 h 0.264584 z m -0.26458,0.26459 h -0.264583 v -0.26459 h 0.264583 z m -0.264588,0.26458 h -0.264583 v -0.26458 h 0.264583 z m -0.264579,0.26458 h -0.264584 v -0.26458 h 0.264584 z m -0.264588,0.26459 h -0.264583 v -0.26459 h 0.264583 z m -0.264579,0.26458 h -0.264584 v -0.26458 h 0.264584 z m -0.264588,0.26458 h -0.264583 v -0.26458 h 0.264583 z m -0.26458,0.26459 h -0.264583 v -0.26459 h 0.264583 z m -0.264587,0.26458 h -0.264583 v -0.26458 h 0.264583 z M 25.249592,76.633958 h 0.264584 v -0.26458 h -0.264584 z m 0.264584,0.26459 h 0.264583 v -0.26459 h -0.264583 z m 0.264584,0.26458 h 0.264583 v -0.26458 H 25.77876 Z m 0.264583,0.26458 h 0.264583 v -0.26458 h -0.264583 z m 0.264584,0.26459 h 0.264583 v -0.26459 h -0.264583 z m 0.264583,0.26458 h 0.264584 v -0.26458 H 26.57251 Z m 0.264584,0.26458 h 0.264583 v -0.26458 h -0.264583 z m 0.264583,0.26459 h 0.264584 v -0.26459 h -0.264584 z m 0.264584,0.26458 h 0.264583 v -0.26458 h -0.264583 z m 0.264584,0.26458 h 0.264583 v -0.26458 h -0.264583 z m 0.264583,0.26459 h 0.264584 v -0.26459 h -0.264584 z m 0.264584,0.26458 h 0.264583 v -0.26458 h -0.264583 z m 0.264583,0.26458 h 0.264584 v -0.26458 h -0.264584 z m 0.264584,0.26459 h 0.264583 v -0.26458 h -0.264583 z m 0.264584,0.26458 h 0.264583 v -0.26458 h -0.264583 z m 0.264583,0.26459 h 0.264583 v -0.26459 h -0.264583 z m 0.264584,0.26458 h 0.264583 v -0.26458 H 29.48293 Z m 0.264583,0.26458 h 0.264584 v -0.26458 h -0.264584 z m 0.264584,0.26458 h 0.264583 v -0.26458 h -0.264583 z m 0.264583,0.26459 h 0.264584 v -0.26459 H 30.27668 Z m 0.264584,0.26458 h 0.264583 v -0.26458 h -0.264583 z m 0.264584,0.26459 h 0.264583 v -0.26459 h -0.264583 z m 0.264583,0.26458 h 0.264584 v -0.26458 h -0.264584 z m 0.264584,0.26458 h 0.264583 v -0.26458 h -0.264583 z m 0.264583,0.26459 h 0.264584 v -0.26459 h -0.264584 z m 0.264584,0.26458 h 0.264583 v -0.26458 h -0.264583 z m 0.264584,0.26458 h 0.264583 v -0.26458 h -0.264583 z m 0.264583,0.26459 h 0.264584 v -0.26459 h -0.264584 z m 0.264584,0.26458 h 0.264583 v -0.26458 h -0.264583 z m 0.264583,0.26458 H 33.1871 v -0.26458 h -0.264584 z m 0.264584,0.26459 h 0.264583 v -0.26459 H 33.1871 Z m 0.264584,0.26458 h 0.264583 v -0.26458 h -0.264583 z m 0.264583,0.26458 h 0.264583 v -0.26458 h -0.264583 z m 0.264584,0.26459 h 0.264583 v -0.26459 h -0.264583 z m 0.264583,0.26458 h 0.264584 v -0.26458 h -0.264584 z m 0.264584,0.26458 h 0.264583 v -0.26458 h -0.264583 z m 0.264583,0.26459 h 0.264584 v -0.26459 h -0.264584 z m 0.264584,0.26458 h 0.264583 v -0.26458 h -0.264583 z m 0.264584,0.26458 h 0.264583 v -0.26458 h -0.264583 z m 0.264583,0.26459 h 0.264584 v -0.26459 h -0.264584 z m 0.264584,0.26458 h 0.264583 v -0.26458 h -0.264583 z m 0.264583,0.26458 h 0.264584 v -0.26458 h -0.264584 z m 0.264584,0.26458 h 0.264583 v -0.26458 h -0.264583 z m 0.264584,0.26459 h 0.264583 v -0.26458 h -0.264583 z m 0.264583,0.26458 h 0.264584 v -0.26458 H 36.89127 Z m 0.264584,0.26459 h 0.264583 v -0.26459 h -0.264583 z m 0.264583,0.26458 h 0.264584 v -0.26458 h -0.264584 z m 0.264584,0.26458 h 0.264583 v -0.26458 h -0.264583 z m 0.264584,0.26459 h 0.264583 v -0.26459 h -0.264583 z m 0.264583,0.26458 h 0.264583 v -0.26459 h -0.264583 z m 0.264584,0.26458 h 0.264583 v -0.26458 h -0.264583 z m 0.264583,0.26459 h 0.264584 v -0.26459 h -0.264584 z m 0.264584,0.26458 h 0.264583 v -0.26458 h -0.264583 z m 0.264583,0.26458 h 0.264584 v -0.26458 h -0.264584 z m 0.264584,0.26459 h 0.264583 v -0.26459 h -0.264583 z m 0.264584,0.26458 h 0.264583 v -0.26458 H 39.80169 Z m 0.264583,0.26458 h 0.264584 v -0.26458 h -0.264584 z m 0.264584,0.26458 h 0.264583 v -0.26458 h -0.264583 z m 0.264583,0.26459 h 0.264584 v -0.26458 H 40.59544 Z m 0.264702,0.26458 h 32.279167 v -0.26458 H 40.860142 Z m -15.61055,-16.13958 h 0.264584 v 0.26458 h -0.264584 z m 0.264584,-0.26459 h 0.264583 v 0.26459 h -0.264583 z m 0.264584,-0.26458 h 0.264583 v 0.26458 H 25.77876 Z m 0.264583,-0.26458 h 0.264583 v 0.26458 h -0.264583 z m 0.264584,-0.26459 h 0.264583 v 0.26459 h -0.264583 z m 0.264583,-0.26458 h 0.264584 v 0.26458 H 26.57251 Z m 0.264584,-0.26458 h 0.264583 v 0.26458 h -0.264583 z m 0.264583,-0.26459 h 0.264584 v 0.26459 h -0.264584 z m 0.264584,-0.26458 h 0.264583 v 0.26458 h -0.264583 z m 0.264584,-0.26458 h 0.264583 v 0.26458 h -0.264583 z m 0.264583,-0.26459 h 0.264584 v 0.26459 h -0.264584 z m 0.264584,-0.26458 h 0.264583 v 0.26458 h -0.264583 z m 0.264583,-0.26458 h 0.264584 v 0.26458 h -0.264584 z m 0.264584,-0.26459 h 0.264583 v 0.26459 h -0.264583 z m 0.264584,-0.26458 h 0.264583 v 0.26458 h -0.264583 z m 0.264583,-0.26458 h 0.264583 v 0.26458 h -0.264583 z m 0.264584,-0.26459 h 0.264583 v 0.26459 H 29.48293 Z m 0.264583,-0.26458 h 0.264584 v 0.26458 h -0.264584 z m 0.264584,-0.26458 h 0.264583 v 0.26458 h -0.264583 z m 0.264583,-0.26459 h 0.264584 v 0.26459 H 30.27668 Z m 0.264584,-0.26458 h 0.264583 v 0.26458 h -0.264583 z m 0.264584,-0.26458 h 0.264583 v 0.26458 h -0.264583 z m 0.264583,-0.26459 h 0.264584 v 0.26459 h -0.264584 z m 0.264584,-0.26458 h 0.264583 v 0.26458 h -0.264583 z m 0.264583,-0.26458 h 0.264584 v 0.26458 h -0.264584 z m 0.264584,-0.26459 h 0.264583 v 0.26459 h -0.264583 z m 0.264584,-0.26458 h 0.264583 v 0.26458 h -0.264583 z m 0.264583,-0.26458 h 0.264584 v 0.26458 h -0.264584 z m 0.264584,-0.26459 h 0.264583 v 0.26459 h -0.264583 z m 0.264583,-0.26458 H 33.1871 v 0.26458 h -0.264584 z m 0.264584,-0.26458 h 0.264583 v 0.26458 H 33.1871 Z m 0.264584,-0.26459 h 0.264583 v 0.26459 h -0.264583 z m 0.264583,-0.26458 h 0.264583 v 0.26458 h -0.264583 z m 0.264584,-0.26458 h 0.264583 v 0.26458 h -0.264583 z m 0.264583,-0.26459 h 0.264584 v 0.26459 h -0.264584 z m 0.264584,-0.26458 h 0.264583 v 0.26458 h -0.264583 z m 0.264583,-0.26458 h 0.264584 v 0.26458 h -0.264584 z m 0.264584,-0.26459 h 0.264583 v 0.26459 h -0.264583 z m 0.264584,-0.26458 h 0.264583 v 0.26458 h -0.264583 z m 0.264583,-0.26458 h 0.264584 v 0.26458 h -0.264584 z m 0.264584,-0.26459 h 0.264583 v 0.26459 h -0.264583 z m 0.264583,-0.26458 h 0.264584 v 0.26458 h -0.264584 z m 0.264584,-0.26458 h 0.264583 v 0.26458 h -0.264583 z m 0.264584,-0.26459 h 0.264583 v 0.26459 h -0.264583 z m 0.264583,-0.26458 h 0.264584 v 0.26458 H 36.89127 Z m 0.264584,-0.26458 h 0.264583 v 0.26458 h -0.264583 z m 0.264583,-0.26459 h 0.264584 v 0.26459 h -0.264584 z m 0.264584,-0.26458 h 0.264583 v 0.26458 h -0.264583 z m 0.264584,-0.26458 h 0.264583 v 0.26458 h -0.264583 z m 0.264583,-0.26459 h 0.264583 v 0.26459 h -0.264583 z m 0.264584,-0.26458 h 0.264583 v 0.26458 h -0.264583 z m 0.264583,-0.26458 h 0.264584 v 0.26458 h -0.264584 z m 0.264584,-0.26459 h 0.264583 v 0.26459 h -0.264583 z m 0.264583,-0.26458 h 0.264584 v 0.26458 h -0.264584 z m 0.264584,-0.26458 h 0.264583 v 0.26458 h -0.264583 z m 0.264584,-0.26459 h 0.264583 v 0.26459 H 39.80169 Z m 0.264583,-0.26458 h 0.264584 v 0.26458 h -0.264584 z m 0.264584,-0.26458 h 0.264583 v 0.26458 h -0.264583 z m 0.264583,-0.26459 h 0.264584 v 0.26459 H 40.59544 Z m 0.264702,-0.26458 h 32.279167 v 0.26458 H 40.860142 Z" />
    <path
       id="rect3001"
       style="font-variation-settings:normal;display:inline;vector-effect:none;fill:none;fill-opacity:1;fill-rule:evenodd;stroke:#ff0000;stroke-width:0.264583;stroke-linecap:butt;stroke-linejoin:miter;stroke-miterlimit:4;stroke-dasharray:0.264583, 0.264583;stroke-dashoffset:0;stroke-opacity:1;stop-color:#000000"
       d="M 35.935313,86.820438 H 78.22681"
       sodipodi:nodetypes="cc" />
    <path
       id="rect3004"
       style="font-variation-settings:normal;display:inline;vector-effect:none;fill:none;fill-opacity:1;fill-rule:evenodd;stroke:#ff0000;stroke-width:0.264583;stroke-linecap:butt;stroke-linejoin:miter;stroke-miterlimit:4;stroke-dasharray:none;stroke-dashoffset:0;stroke-opacity:1;stop-color:#000000"
       d="m 78.841737,86.820428 h 0.753527 v 5.29167 h -0.753527"
       sodipodi:nodetypes="cccc" />
    <text
       xml:space="preserve"
       style="font-size:1.18913px;line-height:1.25;font-family:sans-serif;letter-spacing:0px;display:inline;fill:#ff0000;stroke-width:0.264582"
       x="80.104637"
       y="91.511902"
       id="text3009"><tspan
         sodipodi:role="line"
         id="tspan3007"
         x="80.104637"
         y="91.511902"
         style="fill:#ff0000;stroke-width:0.264582">20px</tspan></text>
    <path
       id="path3019"
       style="font-variation-settings:normal;display:inline;vector-effect:none;fill:none;fill-opacity:1;fill-rule:evenodd;stroke:#ff0000;stroke-width:0.264583;stroke-linecap:butt;stroke-linejoin:miter;stroke-miterlimit:4;stroke-dasharray:0.264583, 0.264583;stroke-dashoffset:0;stroke-opacity:1;stop-color:#000000"
       d="M 35.935338,92.112098 H 78.226835"
       sodipodi:nodetypes="cc" />
    <path
       id="path3021"
       style="font-variation-settings:normal;display:inline;vector-effect:none;fill:none;fill-opacity:1;fill-rule:evenodd;stroke:#ff0000;stroke-width:0.264583;stroke-linecap:butt;stroke-linejoin:miter;stroke-miterlimit:4;stroke-dasharray:0.264583, 0.264583;stroke-dashoffset:0;stroke-opacity:1;stop-color:#000000"
       d="M 35.935313,55.069018 H 78.22681"
       sodipodi:nodetypes="cc" />
    <path
       id="path3023"
       style="font-variation-settings:normal;display:inline;vector-effect:none;fill:none;fill-opacity:1;fill-rule:evenodd;stroke:#ff0000;stroke-width:0.264583;stroke-linecap:butt;stroke-linejoin:miter;stroke-miterlimit:4;stroke-dasharray:none;stroke-dashoffset:0;stroke-opacity:1;stop-color:#000000"
       d="m 78.841737,55.069008 h 0.753527 v 5.29167 h -0.753527"
       sodipodi:nodetypes="cccc" />
    <text
       xml:space="preserve"
       style="font-size:1.18913px;line-height:1.25;font-family:sans-serif;letter-spacing:0px;display:inline;fill:#ff0000;stroke-width:0.264582"
       x="80.104637"
       y="59.760494"
       id="text3027"><tspan
         sodipodi:role="line"
         id="tspan3025"
         x="80.104637"
         y="59.760494"
         style="fill:#ff0000;stroke-width:0.264582">20px</tspan></text>
    <path
       id="path3029"
       style="font-variation-settings:normal;display:inline;vector-effect:none;fill:none;fill-opacity:1;fill-rule:evenodd;stroke:#ff0000;stroke-width:0.264583;stroke-linecap:butt;stroke-linejoin:miter;stroke-miterlimit:4;stroke-dasharray:0.264583, 0.264583;stroke-dashoffset:0;stroke-opacity:1;stop-color:#000000"
       d="M 35.935338,60.360678 H 78.226835"
       sodipodi:nodetypes="cc" />
    <path
       style="color:#000000;font-style:normal;font-variant:normal;font-weight:normal;font-stretch:normal;font-size:medium;line-height:normal;font-family:sans-serif;font-variant-ligatures:normal;font-variant-position:normal;font-variant-caps:normal;font-variant-numeric:normal;font-variant-alternates:normal;font-variant-east-asian:normal;font-feature-settings:normal;font-variation-settings:normal;text-indent:0;text-align:start;text-decoration:none;text-decoration-line:none;text-decoration-style:solid;text-decoration-color:#000000;letter-spacing:normal;word-spacing:normal;text-transform:none;writing-mode:lr-tb;direction:ltr;text-orientation:mixed;dominant-baseline:auto;baseline-shift:baseline;text-anchor:start;white-space:normal;shape-padding:0;shape-margin:0;inline-size:0;clip-rule:nonzero;display:inline;overflow:visible;visibility:visible;isolation:auto;mix-blend-mode:normal;color-interpolation:sRGB;color-interpolation-filters:linearRGB;solid-color:#000000;solid-opacity:1;vector-effect:none;fill:none;fill-opacity:1;fill-rule:nonzero;stroke:#ff0000;stroke-width:0.0264583;stroke-linecap:butt;stroke-linejoin:miter;stroke-miterlimit:4;stroke-dasharray:none;stroke-dashoffset:0;stroke-opacity:1;color-rendering:auto;image-rendering:auto;shape-rendering:auto;text-rendering:auto;enable-background:accumulate;stop-color:#000000"
       d="m 63.961629,60.795518 -0.47426,3.83092 c 4.22527,0.59755 7.99209,1.76686 10.9552,3.29521 l 1.57927,-3.47713 c -3.38967,-1.74837 -7.50415,-3.00462 -12.06021,-3.649 z m -14.3129,0.0556 c -4.68339,0.70202 -8.88741,2.05104 -12.29734,3.9219 l 1.66462,3.43672 c 2.95829,-1.62304 6.79982,-2.88214 11.14016,-3.53271 z m 34.5587,11.33614 -3.2676,1.6779 c 0.37804,0.8366 0.55961,1.65287 0.55961,2.49669 0,0.83075 -0.1792,1.63797 -0.5454,2.46131 l 3.28185,1.65263 c 0.57212,-1.28666 0.89157,-2.68056 0.89157,-4.11394 0,-1.45599 -0.33092,-2.87093 -0.92003,-4.17459 z m -54.42983,0.0303 c -0.57994,1.29453 -0.90584,2.70048 -0.90584,4.14427 0,1.25358 0.24303,2.48165 0.68768,3.62874 l 3.35295,-1.47574 c -0.2783,-0.71797 -0.41261,-1.42643 -0.41261,-2.153 0,-0.83683 0.1786,-1.64705 0.55013,-2.47648 z m 9.34749,12.35701 -1.64566,3.44681 c 3.30628,1.79094 7.3489,3.09407 11.84205,3.80062 l 0.52642,-3.82587 c -4.16148,-0.65439 -7.84977,-1.86532 -10.72281,-3.42156 z m 35.25585,0.25773 c -2.97492,1.52371 -6.7512,2.69052 -10.98367,3.28006 l 0.46949,3.8309 c 4.56309,-0.63556 8.68361,-1.88717 12.08393,-3.62876 z"
       id="path2962" />
    <path
       id="path3042"
       style="font-variation-settings:normal;display:inline;vector-effect:none;fill:#808080;fill-opacity:1;stroke:#000000;stroke-width:0.264583;stroke-linecap:butt;stroke-linejoin:miter;stroke-miterlimit:4;stroke-dasharray:none;stroke-dashoffset:0;stroke-opacity:1;stop-color:#000000"
       d="m 41.124613,70.945428 c -2.118818,0 -3.83646,-1.81259 -3.83646,-4.03421 v -6.28454 h 7.672917 l 10e-7,6.28454 c 2e-6,2.22162 -1.71764,4.03421 -3.836458,4.03421 z"
       sodipodi:nodetypes="sccccs" />
    <rect
       style="font-variation-settings:normal;display:inline;vector-effect:none;fill:#00ff00;fill-opacity:1;fill-rule:evenodd;stroke:#000000;stroke-width:0.264582;stroke-linecap:butt;stroke-linejoin:miter;stroke-miterlimit:4;stroke-dasharray:none;stroke-dashoffset:0;stroke-opacity:1;stop-color:#000000"
       id="rect3151"
       width="26.193752"
       height="1.3229181"
       x="60.626675"
       y="-37.023571"
       transform="rotate(90)" />
    <path
       id="path3155"
       style="font-variation-settings:normal;display:inline;vector-effect:none;fill:#ff0000;fill-opacity:1;fill-rule:evenodd;stroke:none;stroke-width:0.264583;stroke-linecap:butt;stroke-linejoin:miter;stroke-miterlimit:4;stroke-dasharray:none;stroke-dashoffset:0;stroke-opacity:1;stop-color:#000000"
       d="m 88.749627,44.364468 h -0.264584 v 0.26458 h 0.264584 z m -0.264588,-0.26459 h -0.264583 v 0.26459 h 0.264583 z m -0.26458,-0.26458 h -0.264583 v 0.26458 h 0.264583 z m -0.264587,-0.26458 h -0.264583 v 0.26458 h 0.264583 z m -0.26458,-0.26459 h -0.264583 v 0.26459 h 0.264583 z m -0.264587,-0.26458 h -0.264583 v 0.26458 h 0.264583 z m -0.26458,-0.26458 h -0.264583 v 0.26458 h 0.264583 z m -0.264587,-0.26459 h -0.264584 v 0.26459 h 0.264584 z m -0.26458,-0.26458 h -0.264583 v 0.26458 h 0.264583 z m -0.264587,-0.26458 h -0.264584 v 0.26458 h 0.264584 z m -0.26458,-0.26459 h -0.264584 v 0.26459 h 0.264584 z m -0.264588,-0.26458 H 85.57462 v 0.26458 h 0.264583 z m -0.264579,-0.26458 H 85.31004 v 0.26458 h 0.264584 z m -0.264588,-0.26459 h -0.264583 v 0.26459 h 0.264583 z m -0.26458,-0.26458 h -0.264583 v 0.26458 h 0.264583 z m -0.264587,-0.26458 h -0.264583 v 0.26458 h 0.264583 z m -0.26458,-0.26459 h -0.264583 v 0.26459 h 0.264583 z m -0.264587,-0.26458 h -0.264583 v 0.26458 h 0.264583 z m -0.26458,-0.26458 h -0.264583 v 0.26458 h 0.264583 z m -0.264587,-0.26459 h -0.264584 v 0.26459 h 0.264584 z m -0.26458,-0.26458 h -0.264583 v 0.26458 h 0.264583 z m -0.264587,-0.26458 h -0.264584 v 0.26458 h 0.264584 z m -0.26458,-0.26459 h -0.264584 v 0.26459 h 0.264584 z M 82.6642,38.279048 h -0.264583 v 0.26458 H 82.6642 Z m -0.264579,-0.26458 h -0.264584 v 0.26458 h 0.264584 z m -0.264588,-0.26459 H 81.87045 v 0.26459 h 0.264583 z m -0.26458,-0.26458 H 81.60587 v 0.26458 h 0.264583 z m -0.264587,-0.26458 h -0.264583 v 0.26458 h 0.264583 z m -0.26458,-0.26459 h -0.264583 v 0.26459 h 0.264583 z m -0.264587,-0.26458 h -0.264584 v 0.26458 h 0.264584 z m -0.26458,-0.26458 h -0.264583 v 0.26458 h 0.264583 z m -0.264587,-0.26459 h -0.264584 v 0.26459 h 0.264584 z m -0.26458,-0.26458 h -0.264583 v 0.26458 h 0.264583 z m -0.264588,-0.26458 h -0.264583 v 0.26458 h 0.264583 z m -0.264579,-0.26459 h -0.264584 v 0.26459 h 0.264584 z m -0.264588,-0.26458 h -0.264583 v 0.26458 h 0.264583 z m -0.264579,-0.26458 h -0.264584 v 0.26458 h 0.264584 z m -0.264588,-0.26459 h -0.264583 v 0.26459 h 0.264583 z m -0.26458,-0.26458 h -0.264583 v 0.26458 h 0.264583 z m -0.264587,-0.26458 H 78.16628 v 0.26458 h 0.264583 z m -0.26458,-0.26459 H 77.9017 v 0.26459 h 0.264583 z m -0.264587,-0.26458 h -0.264584 v 0.26458 h 0.264584 z m -0.26458,-0.26458 h -0.264583 v 0.26458 h 0.264583 z m -0.264587,-0.26459 h -0.264584 v 0.26459 h 0.264584 z m -0.26458,-0.26458 h -0.264584 v 0.26458 h 0.264584 z m -0.264588,-0.26458 h -0.264583 v 0.26458 h 0.264583 z m -0.264579,-0.26459 h -0.264584 v 0.26459 h 0.264584 z m -0.264588,-0.26458 h -0.264583 v 0.26458 h 0.264583 z m -0.26458,-0.26458 h -0.264583 v 0.26458 h 0.264583 z m -0.264587,-0.26459 h -0.264583 v 0.26459 h 0.264583 z m -0.26458,-0.26458 h -0.264583 v 0.26458 h 0.264583 z m -0.264587,-0.26458 h -0.264583 v 0.26458 h 0.264583 z m -0.26458,-0.26459 h -0.264583 v 0.26459 h 0.264583 z m -0.264587,-0.26458 h -0.264584 v 0.26458 h 0.264584 z m -0.26458,-0.26458 H 74.19753 v 0.26458 h 0.264583 z m -0.264587,-0.26459 h -0.264584 v 0.26459 h 0.264584 z m -0.26458,-0.26458 h -0.264584 v 0.26458 h 0.264584 z m -0.264588,-0.26458 h -0.264583 v 0.26458 h 0.264583 z m -0.264579,-0.26459 h -0.264584 v 0.26459 h 0.264584 z m 15.34584,15.87499 h -0.264583 v -0.26458 h 0.264583 z m -0.26458,0.26459 h -0.264583 v -0.26459 h 0.264583 z m -0.264587,0.26458 h -0.264583 v -0.26458 h 0.264583 z m -0.26458,0.26458 h -0.264583 v -0.26458 h 0.264583 z m -0.264587,0.26459 h -0.264584 v -0.26459 h 0.264584 z m -0.26458,0.26458 h -0.264583 v -0.26458 h 0.264583 z m -0.264587,0.26459 h -0.264584 v -0.26459 h 0.264584 z m -0.26458,0.26458 h -0.264584 v -0.26458 h 0.264584 z m -0.264588,0.26458 h -0.264583 v -0.26458 h 0.264583 z m -0.264579,0.26459 h -0.264584 v -0.26459 h 0.264584 z m -0.264588,0.26458 H 85.8392 v -0.26458 h 0.264583 z m -0.26458,0.26458 H 85.57462 v -0.26458 h 0.264583 z m -0.264587,0.26458 h -0.264583 v -0.26458 h 0.264583 z m -0.26458,0.26459 h -0.264583 v -0.26458 h 0.264583 z m -0.264587,0.26458 h -0.264584 v -0.26458 h 0.264584 z m -0.26458,0.26459 h -0.264583 v -0.26459 h 0.264583 z m -0.264587,0.26458 h -0.264584 v -0.26458 h 0.264584 z m -0.26458,0.26458 h -0.264583 v -0.26458 h 0.264583 z m -0.264588,0.26459 h -0.264583 v -0.26459 h 0.264583 z m -0.264579,0.26458 h -0.264584 v -0.26458 h 0.264584 z m -0.264588,0.26458 h -0.264583 v -0.26458 h 0.264583 z m -0.264579,0.26459 h -0.264584 v -0.26459 h 0.264584 z m -0.264588,0.26458 h -0.264583 v -0.26458 h 0.264583 z m -0.26458,0.26458 h -0.264583 v -0.26458 H 82.6642 Z m -0.264587,0.26459 H 82.13503 v -0.26459 h 0.264583 z m -0.26458,0.26458 H 81.87045 v -0.26458 h 0.264583 z m -0.264587,0.26458 h -0.264584 v -0.26458 h 0.264584 z m -0.26458,0.26459 h -0.264583 v -0.26459 h 0.264583 z m -0.264587,0.26458 h -0.264584 v -0.26458 h 0.264584 z m -0.26458,0.26458 h -0.264584 v -0.26458 h 0.264584 z m -0.264588,0.26459 h -0.264583 v -0.26459 h 0.264583 z m -0.264579,0.26458 h -0.264584 v -0.26458 h 0.264584 z m -0.264588,0.26458 h -0.264583 v -0.26458 h 0.264583 z m -0.26458,0.26459 h -0.264583 v -0.26459 h 0.264583 z m -0.264587,0.26458 h -0.264583 v -0.26458 h 0.264583 z m -0.26458,0.26458 h -0.264583 v -0.26458 h 0.264583 z m -0.264587,0.26459 h -0.264583 v -0.26459 h 0.264583 z m -0.26458,0.26458 h -0.264583 v -0.26458 h 0.264583 z m -0.264587,0.26458 h -0.264584 v -0.26458 h 0.264584 z m -0.26458,0.26459 H 78.16628 v -0.26459 h 0.264583 z m -0.264587,0.26458 h -0.264584 v -0.26458 h 0.264584 z m -0.26458,0.26458 h -0.264584 v -0.26458 h 0.264584 z m -0.264588,0.26459 h -0.264583 v -0.26459 h 0.264583 z m -0.264579,0.26458 h -0.264584 v -0.26458 h 0.264584 z m -0.264588,0.26458 h -0.264583 v -0.26458 h 0.264583 z m -0.26458,0.26459 h -0.264583 v -0.26459 h 0.264583 z m -0.264587,0.26458 h -0.264583 v -0.26458 h 0.264583 z m -0.26458,0.26458 h -0.264583 v -0.26458 h 0.264583 z m -0.264587,0.26459 h -0.264583 v -0.26459 h 0.264583 z m -0.26458,0.26458 h -0.264583 v -0.26458 h 0.264583 z m -0.264587,0.26458 h -0.264584 v -0.26458 h 0.264584 z m -0.26458,0.26459 h -0.264583 v -0.26459 h 0.264583 z m -0.264588,0.26458 h -0.264583 v -0.26458 h 0.264583 z m -0.264579,0.26458 h -0.264584 v -0.26458 h 0.264584 z m -0.264588,0.26459 h -0.264583 v -0.26459 h 0.264583 z m -0.264579,0.26458 h -0.264584 v -0.26458 h 0.264584 z m -0.264588,0.26458 h -0.264583 v -0.26458 h 0.264583 z m -0.26458,0.26459 h -0.264583 v -0.26459 h 0.264583 z m -0.264587,0.26458 h -0.264583 v -0.26458 h 0.264583 z M 25.249592,44.893628 h 0.264584 v -0.26458 h -0.264584 z m 0.264584,0.26459 h 0.264583 v -0.26459 h -0.264583 z m 0.264584,0.26458 h 0.264583 v -0.26458 H 25.77876 Z m 0.264583,0.26458 h 0.264583 v -0.26458 h -0.264583 z m 0.264584,0.26459 h 0.264583 v -0.26459 h -0.264583 z m 0.264583,0.26458 h 0.264584 v -0.26458 H 26.57251 Z m 0.264584,0.26458 h 0.264583 v -0.26458 h -0.264583 z m 0.264583,0.26459 h 0.264584 v -0.26459 h -0.264584 z m 0.264584,0.26458 h 0.264583 v -0.26458 h -0.264583 z m 0.264584,0.26458 h 0.264583 v -0.26458 h -0.264583 z m 0.264583,0.26459 h 0.264584 v -0.26459 h -0.264584 z m 0.264584,0.26458 h 0.264583 v -0.26458 h -0.264583 z m 0.264583,0.26458 h 0.264584 v -0.26458 h -0.264584 z m 0.264584,0.26459 h 0.264583 v -0.26458 h -0.264583 z m 0.264584,0.26458 h 0.264583 v -0.26458 h -0.264583 z m 0.264583,0.26459 h 0.264583 v -0.26459 h -0.264583 z m 0.264584,0.26458 h 0.264583 v -0.26458 H 29.48293 Z m 0.264583,0.26458 h 0.264584 v -0.26458 h -0.264584 z m 0.264584,0.26458 h 0.264583 v -0.26458 h -0.264583 z m 0.264583,0.26459 h 0.264584 v -0.26459 H 30.27668 Z m 0.264584,0.26458 h 0.264583 v -0.26458 h -0.264583 z m 0.264584,0.26459 h 0.264583 v -0.26459 h -0.264583 z m 0.264583,0.26458 h 0.264584 v -0.26458 h -0.264584 z m 0.264584,0.26458 h 0.264583 v -0.26458 h -0.264583 z m 0.264583,0.26459 h 0.264584 v -0.26459 h -0.264584 z m 0.264584,0.26458 h 0.264583 v -0.26458 h -0.264583 z m 0.264584,0.26458 h 0.264583 v -0.26458 h -0.264583 z m 0.264583,0.26459 h 0.264584 v -0.26459 h -0.264584 z m 0.264584,0.26458 h 0.264583 v -0.26458 h -0.264583 z m 0.264583,0.26458 H 33.1871 v -0.26458 h -0.264584 z m 0.264584,0.26459 h 0.264583 v -0.26459 H 33.1871 Z m 0.264584,0.26458 h 0.264583 v -0.26458 h -0.264583 z m 0.264583,0.26458 h 0.264583 v -0.26458 h -0.264583 z m 0.264584,0.26459 h 0.264583 v -0.26459 h -0.264583 z m 0.264583,0.26458 h 0.264584 v -0.26458 h -0.264584 z m 0.264584,0.26458 h 0.264583 v -0.26458 h -0.264583 z m 0.264583,0.26459 h 0.264584 v -0.26459 h -0.264584 z m 0.264584,0.26458 h 0.264583 v -0.26458 h -0.264583 z m 0.264584,0.26458 h 0.264583 v -0.26458 h -0.264583 z m 0.264583,0.26459 h 0.264584 v -0.26459 h -0.264584 z m 0.264584,0.26458 h 0.264583 v -0.26458 h -0.264583 z m 0.264583,0.26458 h 0.264584 v -0.26458 h -0.264584 z m 0.264584,0.26458 h 0.264583 v -0.26458 h -0.264583 z m 0.264584,0.26459 h 0.264583 v -0.26458 h -0.264583 z m 0.264583,0.26458 h 0.264584 v -0.26458 H 36.89127 Z m 0.264584,0.26459 h 0.264583 v -0.26459 h -0.264583 z m 0.264583,0.26458 h 0.264584 v -0.26458 h -0.264584 z m 0.264584,0.26458 h 0.264583 v -0.26458 h -0.264583 z m 0.264584,0.26459 h 0.264583 v -0.26459 h -0.264583 z m 0.264583,0.26458 h 0.264583 v -0.26459 h -0.264583 z m 0.264584,0.26458 h 0.264583 v -0.26458 h -0.264583 z m 0.264583,0.26459 h 0.264584 v -0.26459 h -0.264584 z m 0.264584,0.26458 h 0.264583 v -0.26458 h -0.264583 z m 0.264583,0.26458 h 0.264584 v -0.26458 h -0.264584 z m 0.264584,0.26459 h 0.264583 v -0.26459 h -0.264583 z m 0.264584,0.26458 h 0.264583 v -0.26458 H 39.80169 Z m 0.264583,0.26458 h 0.264584 v -0.26458 h -0.264584 z m 0.264584,0.26458 h 0.264583 v -0.26458 h -0.264583 z m 0.264583,0.26459 h 0.264584 v -0.26458 H 40.59544 Z m 0.264702,0.26458 h 32.279167 v -0.26458 H 40.860142 Z m -15.61055,-16.13958 h 0.264584 v 0.26458 h -0.264584 z m 0.264584,-0.26459 h 0.264583 v 0.26459 h -0.264583 z m 0.264584,-0.26458 h 0.264583 v 0.26458 H 25.77876 Z m 0.264583,-0.26458 h 0.264583 v 0.26458 h -0.264583 z m 0.264584,-0.26459 h 0.264583 v 0.26459 h -0.264583 z m 0.264583,-0.26458 h 0.264584 v 0.26458 H 26.57251 Z m 0.264584,-0.26458 h 0.264583 v 0.26458 h -0.264583 z m 0.264583,-0.26459 h 0.264584 v 0.26459 h -0.264584 z m 0.264584,-0.26458 h 0.264583 v 0.26458 h -0.264583 z m 0.264584,-0.26458 h 0.264583 v 0.26458 h -0.264583 z m 0.264583,-0.26459 h 0.264584 v 0.26459 h -0.264584 z m 0.264584,-0.26458 h 0.264583 v 0.26458 h -0.264583 z m 0.264583,-0.26458 h 0.264584 v 0.26458 h -0.264584 z m 0.264584,-0.26459 h 0.264583 v 0.26459 h -0.264583 z m 0.264584,-0.26458 h 0.264583 v 0.26458 h -0.264583 z m 0.264583,-0.26458 h 0.264583 v 0.26458 h -0.264583 z m 0.264584,-0.26459 h 0.264583 v 0.26459 H 29.48293 Z m 0.264583,-0.26458 h 0.264584 v 0.26458 h -0.264584 z m 0.264584,-0.26458 h 0.264583 v 0.26458 h -0.264583 z m 0.264583,-0.26459 h 0.264584 v 0.26459 H 30.27668 Z m 0.264584,-0.26458 h 0.264583 v 0.26458 h -0.264583 z m 0.264584,-0.26458 h 0.264583 v 0.26458 h -0.264583 z m 0.264583,-0.26459 h 0.264584 v 0.26459 h -0.264584 z m 0.264584,-0.26458 h 0.264583 v 0.26458 h -0.264583 z m 0.264583,-0.26458 h 0.264584 v 0.26458 h -0.264584 z m 0.264584,-0.26459 h 0.264583 v 0.26459 h -0.264583 z m 0.264584,-0.26458 h 0.264583 v 0.26458 h -0.264583 z m 0.264583,-0.26458 h 0.264584 v 0.26458 h -0.264584 z m 0.264584,-0.26459 h 0.264583 v 0.26459 h -0.264583 z m 0.264583,-0.26458 H 33.1871 v 0.26458 h -0.264584 z m 0.264584,-0.26458 h 0.264583 v 0.26458 H 33.1871 Z m 0.264584,-0.26459 h 0.264583 v 0.26459 h -0.264583 z m 0.264583,-0.26458 h 0.264583 v 0.26458 h -0.264583 z m 0.264584,-0.26458 h 0.264583 v 0.26458 h -0.264583 z m 0.264583,-0.26459 h 0.264584 v 0.26459 h -0.264584 z m 0.264584,-0.26458 h 0.264583 v 0.26458 h -0.264583 z m 0.264583,-0.26458 h 0.264584 v 0.26458 h -0.264584 z m 0.264584,-0.26459 h 0.264583 v 0.26459 h -0.264583 z m 0.264584,-0.26458 h 0.264583 v 0.26458 h -0.264583 z m 0.264583,-0.26458 h 0.264584 v 0.26458 h -0.264584 z m 0.264584,-0.26459 h 0.264583 v 0.26459 h -0.264583 z m 0.264583,-0.26458 h 0.264584 v 0.26458 h -0.264584 z m 0.264584,-0.26458 h 0.264583 v 0.26458 h -0.264583 z m 0.264584,-0.26459 h 0.264583 v 0.26459 h -0.264583 z m 0.264583,-0.26458 h 0.264584 v 0.26458 H 36.89127 Z m 0.264584,-0.26458 h 0.264583 v 0.26458 h -0.264583 z m 0.264583,-0.26459 h 0.264584 v 0.26459 h -0.264584 z m 0.264584,-0.26458 h 0.264583 v 0.26458 h -0.264583 z m 0.264584,-0.26458 h 0.264583 v 0.26458 h -0.264583 z m 0.264583,-0.26459 h 0.264583 v 0.26459 h -0.264583 z m 0.264584,-0.26458 h 0.264583 v 0.26458 h -0.264583 z m 0.264583,-0.26458 h 0.264584 v 0.26458 h -0.264584 z m 0.264584,-0.26459 h 0.264583 v 0.26459 h -0.264583 z m 0.264583,-0.26458 h 0.264584 v 0.26458 h -0.264584 z m 0.264584,-0.26458 h 0.264583 v 0.26458 h -0.264583 z m 0.264584,-0.26459 h 0.264583 v 0.26459 H 39.80169 Z m 0.264583,-0.26458 h 0.264584 v 0.26458 h -0.264584 z m 0.264584,-0.26458 h 0.264583 v 0.26458 h -0.264583 z m 0.264583,-0.26459 h 0.264584 v 0.26459 H 40.59544 Z m 0.264702,-0.26458 h 32.279167 v 0.26458 H 40.860142 Z" />
    <path
       id="rect3287"
       style="font-variation-settings:normal;display:inline;vector-effect:none;fill:#ffcc00;fill-opacity:1;fill-rule:evenodd;stroke:#000000;stroke-width:0.264583;stroke-linecap:butt;stroke-linejoin:miter;stroke-miterlimit:4;stroke-dasharray:none;stroke-dashoffset:0;stroke-opacity:1;stop-color:#000000"
       d="m 69.724779,61.000408 1.626937,1.3413 1.626938,-1.3413 v 2.18438 l -1.626938,1.3413 -1.626937,-1.3413 z"
       sodipodi:nodetypes="ccccccc" />
    <path
       id="path3294"
       style="font-variation-settings:normal;display:inline;vector-effect:none;fill:#ffcc00;fill-opacity:1;fill-rule:evenodd;stroke:#000000;stroke-width:0.264583;stroke-linecap:butt;stroke-linejoin:miter;stroke-miterlimit:4;stroke-dasharray:none;stroke-dashoffset:0;stroke-opacity:1;stop-color:#000000"
       d="m 69.724779,63.184788 1.626937,1.3413 1.626938,-1.3413 v 2.18438 l -1.626938,1.3413 -1.626937,-1.3413 z"
       sodipodi:nodetypes="ccccccc" />
    <rect
       style="font-variation-settings:normal;display:inline;vector-effect:none;fill:#ff0000;fill-opacity:1;fill-rule:evenodd;stroke:#000000;stroke-width:0.264582;stroke-linecap:butt;stroke-linejoin:miter;stroke-miterlimit:4;stroke-dasharray:none;stroke-dashoffset:0;stroke-opacity:1;stop-color:#000000"
       id="rect3306"
       width="3.4395847"
       height="1.3229181"
       x="83.380859"
       y="-38.346489"
       transform="rotate(90)" />
    <rect
       style="font-variation-settings:normal;display:inline;vector-effect:none;fill:#ffd42a;fill-opacity:1;fill-rule:evenodd;stroke:#000000;stroke-width:0.264582;stroke-linecap:butt;stroke-linejoin:miter;stroke-miterlimit:4;stroke-dasharray:none;stroke-dashoffset:0;stroke-opacity:1;stop-color:#000000"
       id="rect3334"
       width="15.610432"
       height="1.3229181"
       x="71.210022"
       y="-39.669407"
       transform="rotate(90)" />
    <g
       id="g2906"
       transform="matrix(1.7076438,0,0,1.6961361,-27.445915,779.3746)"
       style="display:inline;stroke-width:0.587586">
      <path
         style="fill:none;stroke:#000000;stroke-width:0.155465px;stroke-linecap:butt;stroke-linejoin:miter;stroke-opacity:1"
         d="m 51.591837,-408.42641 -1.992421,-3.35116 -0.532534,-2.9805 -1.850848,2.91969 -0.414158,3.384"
         id="path2892" />
      <path
         style="fill:none;stroke:#000000;stroke-width:0.155465px;stroke-linecap:butt;stroke-linejoin:miter;stroke-opacity:1"
         d="m 49.066881,-414.75807 -0.0078,-5.41188"
         id="path2894"
         sodipodi:nodetypes="cc" />
      <path
         style="fill:none;stroke:#000000;stroke-width:0.155465px;stroke-linecap:butt;stroke-linejoin:miter;stroke-opacity:1"
         d="m 52.007777,-423.07221 0.930548,3.16736 -3.853794,1.24994 -2.404163,2.95093 0.52894,0.61142"
         id="path2896"
         sodipodi:nodetypes="ccccc" />
      <circle
         style="fill:#ffffff;stroke:#000000;stroke-width:0.155465;stop-color:#000000"
         id="circle2898"
         cx="49.042446"
         cy="-421.27411"
         r="1.2859401" />
      <ellipse
         style="fill:#cccccc;stroke:#000000;stroke-width:0.155465;stop-color:#000000"
         id="ellipse2900"
         cx="47.027962"
         cy="-416.01376"
         rx="1.0814666"
         ry="1.8772978" />
      <path
         style="fill:none;stroke:#000000;stroke-width:0.155465px;stroke-linecap:butt;stroke-linejoin:miter;stroke-opacity:1"
         d="m 52.581487,-422.31786 -4.351401,-2.75525"
         id="path2902" />
      <path
         style="fill:none;stroke:#000000;stroke-width:0.155465px;stroke-linecap:butt;stroke-linejoin:miter;stroke-opacity:1"
         d="m 51.811419,-423.2633 -0.396076,0.64567"
         id="path2904" />
    </g>
    <g
       id="g3149"
       transform="translate(90.792375,486.13572)"
       style="display:inline">
      <g
         id="g2933"
         transform="rotate(51.550758,79.250152,-428.91338)">
        <path
           style="display:inline;fill:none;stroke:#000000;stroke-width:0.264583px;stroke-linecap:butt;stroke-linejoin:miter;stroke-opacity:1"
           d="M 83.950223,-432.30762 76.51958,-436.9809"
           id="path2902-3" />
        <path
           style="display:inline;fill:none;stroke:#000000;stroke-width:0.264583px;stroke-linecap:butt;stroke-linejoin:miter;stroke-opacity:1"
           d="m 82.635221,-433.91121 -0.676357,1.09514"
           id="path2904-7" />
      </g>
      <path
         id="path1405"
         style="font-variation-settings:normal;display:inline;vector-effect:none;fill:none;fill-opacity:1;fill-rule:evenodd;stroke:#000000;stroke-width:0.264583;stroke-linecap:butt;stroke-linejoin:miter;stroke-miterlimit:4;stroke-dasharray:none;stroke-dashoffset:0;stroke-opacity:1;stop-color:#000000"
         d="m 83.290799,-420.55181 h 0.52443 l 0.457938,0.46159 -0.193506,4.30315 h -0.982375 l -0.264451,-4.35749 z"
         sodipodi:nodetypes="ccccccc" />
      <path
         id="path1407"
         style="font-variation-settings:normal;display:inline;vector-effect:none;fill:none;fill-opacity:1;fill-rule:evenodd;stroke:#000000;stroke-width:0.264583;stroke-linecap:butt;stroke-linejoin:miter;stroke-miterlimit:4;stroke-dasharray:none;stroke-dashoffset:0;stroke-opacity:1;stop-color:#000000"
         d="m 84.170334,-412.48982 h -0.652141 l -0.44761,-3.29725 h 1.009078 z"
         sodipodi:nodetypes="ccccc" />
      <path
         style="display:inline;fill:none;stroke:#000000;stroke-width:0.264583px;stroke-linecap:butt;stroke-linejoin:miter;stroke-opacity:1"
         d="m 83.575377,-421.15887 1.060885,-0.0349 0.09334,-0.73792 0.0078,-0.36323 0.209514,-0.043 -0.200213,-0.39136 0.01484,-0.69361 -0.195507,-0.64098 -0.374294,-0.36422 -0.9611,-0.15271 -0.760403,0.15271 -0.374295,0.36422 -0.195506,0.64098 0.03189,1.49117 0.450476,0.54561 z"
         id="path1417"
         sodipodi:nodetypes="cccccccccccccccc" />
      <g
         id="g1436"
         transform="matrix(0.37928369,0,0,0.38296147,49.959302,-226.67964)"
         style="display:inline;stroke-width:2.62386">
        <g
           id="g1430"
           transform="rotate(-90,99.620374,-504.60835)"
           style="stroke-width:2.62386">
          <path
             id="path1421"
             style="font-variation-settings:normal;opacity:1;vector-effect:none;fill:none;fill-opacity:1;fill-rule:evenodd;stroke:#000000;stroke-width:0.69423;stroke-linecap:butt;stroke-linejoin:miter;stroke-miterlimit:4;stroke-dasharray:none;stroke-dashoffset:0;stroke-opacity:1;stop-color:#000000;stop-opacity:1"
             d="m 98.666542,-517.55395 h 1.382708 l 1.20737,1.20533 -0.51019,11.23651 h -2.590083 l -0.697239,-11.37837 z"
             sodipodi:nodetypes="ccccccc" />
          <path
             id="path1423"
             style="font-variation-settings:normal;opacity:1;vector-effect:none;fill:none;fill-opacity:1;fill-rule:evenodd;stroke:#000000;stroke-width:0.69423;stroke-linecap:butt;stroke-linejoin:miter;stroke-miterlimit:4;stroke-dasharray:none;stroke-dashoffset:0;stroke-opacity:1;stop-color:#000000;stop-opacity:1"
             d="m 100.98548,-496.50225 h -1.719388 l -1.180145,-8.60986 h 2.660483 z"
             sodipodi:nodetypes="ccccc" />
          <path
             style="display:inline;fill:none;stroke:#000000;stroke-width:0.69423px;stroke-linecap:butt;stroke-linejoin:miter;stroke-opacity:1"
             d="m 101.39004,-495.96172 0.89946,1.3165 -0.0423,2.2633 -0.58966,0.13109 -0.1654,2.62794 -1.28208,0.41127 -1.036801,-0.99838 -0.619229,-1.90823 -0.215293,-2.41752 0.649785,-1.59437 0.27761,-0.37204 h 1.719388 z"
             id="path1425"
             sodipodi:nodetypes="ccccccccccccc" />
        </g>
      </g>
      <path
         style="display:inline;fill:none;stroke:#000000;stroke-width:0.264583px;stroke-linecap:butt;stroke-linejoin:miter;stroke-opacity:1"
         d="m 84.474335,-412.22588 0.226638,0.69086 -0.323049,0.1952 0.0019,0.45881 -0.601333,0.0915 -0.530382,-0.0215 -0.06502,-0.56301 -0.01659,-0.3628 0.246436,-0.6106 0.105292,-0.14248 h 0.652135 z"
         id="path1448"
         sodipodi:nodetypes="cccccccccccc" />
      <path
         id="path1582"
         style="font-variation-settings:normal;display:inline;vector-effect:none;fill:none;fill-opacity:1;fill-rule:evenodd;stroke:#000000;stroke-width:0.264583;stroke-linecap:butt;stroke-linejoin:miter;stroke-miterlimit:4;stroke-dasharray:none;stroke-dashoffset:0;stroke-opacity:1;stop-color:#000000"
         d="m 84.815716,-415.04152 -1.297523,2.5517 2.64491,1.33562 3.769746,1.31248 0.722822,-1.42149 -4.028923,-2.8816 z"
         sodipodi:nodetypes="ccccccc" />
      <path
         id="path1584"
         style="font-variation-settings:normal;display:inline;vector-effect:none;fill:none;fill-opacity:1;fill-rule:evenodd;stroke:#000000;stroke-width:0.264583;stroke-linecap:butt;stroke-linejoin:miter;stroke-miterlimit:4;stroke-dasharray:none;stroke-dashoffset:0;stroke-opacity:1;stop-color:#000000"
         d="m 91.045845,-410.51394 -1.480494,-0.49515 -0.407925,0.69454 -1.247408,4.55642 0.876572,0.29318 z"
         sodipodi:nodetypes="cccccc" />
      <path
         style="display:inline;fill:none;stroke:#000000;stroke-width:0.264583px;stroke-linecap:butt;stroke-linejoin:miter;stroke-opacity:1"
         d="m 88.270985,-405.8449 -0.757441,0.43579 1.439841,2.48524 0.283585,-0.16316 -0.503678,-1.95991 z"
         id="path1586"
         sodipodi:nodetypes="cccccc" />
      <path
         id="path1391"
         style="font-variation-settings:normal;display:inline;vector-effect:none;fill:none;fill-opacity:1;fill-rule:evenodd;stroke:#000000;stroke-width:0.264583;stroke-linecap:butt;stroke-linejoin:miter;stroke-miterlimit:4;stroke-dasharray:none;stroke-dashoffset:0;stroke-opacity:1;stop-color:#000000"
         d="m 81.999834,-420.75932 0.427167,-0.0854 0.09894,-0.50268 h 1.466952 l 0.136153,0.50268 1.36561,1.29473 -0.134152,5.57154 -2.942715,-0.0168 z"
         sodipodi:nodetypes="ccccccccc" />
      <path
         id="path1395"
         style="font-variation-settings:normal;display:inline;vector-effect:none;fill:none;fill-opacity:1;fill-rule:evenodd;stroke:#000000;stroke-width:0.264583;stroke-linecap:butt;stroke-linejoin:miter;stroke-miterlimit:4;stroke-dasharray:none;stroke-dashoffset:0;stroke-opacity:1;stop-color:#000000"
         d="m 85.327365,-413.9953 h -2.870562 v 2.95484 l 0.529156,3.94427 h 1.599115 l 0.758229,-4.88392 z"
         sodipodi:nodetypes="ccccccc" />
      <path
         id="path1401"
         style="font-variation-settings:normal;display:inline;vector-effect:none;fill:none;fill-opacity:1;fill-rule:evenodd;stroke:#000000;stroke-width:0.264583;stroke-linecap:butt;stroke-linejoin:miter;stroke-miterlimit:4;stroke-dasharray:none;stroke-dashoffset:0;stroke-opacity:1;stop-color:#000000"
         d="m 84.585074,-407.09619 h -1.561651 l -0.164968,0.78779 0.272204,4.71514 h 0.924616 z"
         sodipodi:nodetypes="cccccc" />
      <path
         style="display:inline;fill:none;stroke:#000000;stroke-width:0.264583px;stroke-linecap:butt;stroke-linejoin:miter;stroke-opacity:1"
         d="m 83.130659,-401.59326 v 0.87159 h 2.879689 v -0.32632 l -1.955073,-0.54527 z"
         id="path1403"
         sodipodi:nodetypes="cccccc" />
      <g
         id="g2765"
         transform="matrix(0.08064661,-0.37045054,0.3743514,0.08149582,265.35799,-345.61174)"
         style="display:inline;stroke-width:2.62386">
        <g
           id="g2763"
           transform="rotate(-90,99.620374,-504.60835)"
           style="stroke-width:2.62386">
          <path
             id="path2757"
             style="font-variation-settings:normal;opacity:1;vector-effect:none;fill:none;fill-opacity:1;fill-rule:evenodd;stroke:#000000;stroke-width:0.69423;stroke-linecap:butt;stroke-linejoin:miter;stroke-miterlimit:4;stroke-dasharray:none;stroke-dashoffset:0;stroke-opacity:1;stop-color:#000000;stop-opacity:1"
             d="m 98.666542,-517.55395 h 1.382708 l 1.20737,1.20533 -0.51019,11.23651 h -2.590083 l -0.697239,-11.37837 z"
             sodipodi:nodetypes="ccccccc" />
          <path
             id="path2759"
             style="font-variation-settings:normal;opacity:1;vector-effect:none;fill:none;fill-opacity:1;fill-rule:evenodd;stroke:#000000;stroke-width:0.69423;stroke-linecap:butt;stroke-linejoin:miter;stroke-miterlimit:4;stroke-dasharray:none;stroke-dashoffset:0;stroke-opacity:1;stop-color:#000000;stop-opacity:1"
             d="m 100.98548,-496.50225 h -1.719388 l -1.180145,-8.60986 h 2.660483 z"
             sodipodi:nodetypes="ccccc" />
          <path
             style="display:inline;fill:none;stroke:#000000;stroke-width:0.69423px;stroke-linecap:butt;stroke-linejoin:miter;stroke-opacity:1"
             d="m 101.39004,-495.96172 0.89946,1.3165 -0.0423,2.2633 -0.58966,0.13109 -0.1654,2.62794 -1.28208,0.41127 -1.036801,-0.99838 -0.619229,-1.90823 -0.215293,-2.41752 0.649785,-1.59437 0.27761,-0.37204 h 1.719388 z"
             id="path2761"
             sodipodi:nodetypes="ccccccccccccc" />
        </g>
      </g>
    </g>
    <g
       id="g1536"
       transform="matrix(0.37638536,0,0,0.37508131,39.097288,260.89933)"
       style="display:inline;stroke-width:2.66147">
      <path
         id="rect1272"
         style="font-variation-settings:normal;opacity:1;vector-effect:none;fill:none;fill-opacity:1;fill-rule:evenodd;stroke:#000000;stroke-width:0.704179;stroke-linecap:butt;stroke-linejoin:miter;stroke-miterlimit:4;stroke-dasharray:none;stroke-dashoffset:0;stroke-opacity:1;stop-color:#000000;stop-opacity:1"
         d="m 256.85706,-520.68286 3.98578,-0.82518 0.25475,-1.34018 h 3.77705 l 0.35057,1.34018 3.74072,0.82518 v 17.43563 h -12.10887 z"
         sodipodi:nodetypes="ccccccccc" />
      <path
         id="rect1274"
         style="font-variation-settings:normal;opacity:1;vector-effect:none;fill:none;fill-opacity:1;fill-rule:evenodd;stroke:#000000;stroke-width:0.704179;stroke-linecap:butt;stroke-linejoin:miter;stroke-miterlimit:4;stroke-dasharray:none;stroke-dashoffset:0;stroke-opacity:1;stop-color:#000000;stop-opacity:1"
         d="m 256.85706,-503.24722 h 5.99583 v 7.87768 l -1.36245,10.51554 h -4.11735 l -1.95227,-13.02063 z"
         sodipodi:nodetypes="ccccccc" />
      <path
         id="path1277"
         style="font-variation-settings:normal;opacity:1;vector-effect:none;fill:none;fill-opacity:1;fill-rule:evenodd;stroke:#000000;stroke-width:0.704179;stroke-linecap:butt;stroke-linejoin:miter;stroke-miterlimit:4;stroke-dasharray:none;stroke-dashoffset:0;stroke-opacity:1;stop-color:#000000;stop-opacity:1"
         d="m 268.84872,-503.24722 h -5.99583 v 7.87768 l 1.36245,10.51554 h 4.11735 l 1.95227,-13.02063 z"
         sodipodi:nodetypes="ccccccc" />
      <path
         id="rect1279"
         style="font-variation-settings:normal;opacity:1;vector-effect:none;fill:none;fill-opacity:1;fill-rule:evenodd;stroke:#000000;stroke-width:0.704179;stroke-linecap:butt;stroke-linejoin:miter;stroke-miterlimit:4;stroke-dasharray:none;stroke-dashoffset:0;stroke-opacity:1;stop-color:#000000;stop-opacity:1"
         d="m 257.37308,-484.854 h 4.02088 l 0.42475,2.1003 -0.70084,12.57072 h -2.38069 z"
         sodipodi:nodetypes="cccccc" />
      <path
         style="fill:none;stroke:#000000;stroke-width:0.704179px;stroke-linecap:butt;stroke-linejoin:miter;stroke-opacity:1"
         d="m 261.11787,-470.18298 v 2.32368 h -4.18615 v -0.86997 l 1.80546,-1.45371 z"
         id="path1282" />
      <path
         id="path1284"
         style="font-variation-settings:normal;opacity:1;vector-effect:none;fill:none;fill-opacity:1;fill-rule:evenodd;stroke:#000000;stroke-width:0.704179;stroke-linecap:butt;stroke-linejoin:miter;stroke-miterlimit:4;stroke-dasharray:none;stroke-dashoffset:0;stroke-opacity:1;stop-color:#000000;stop-opacity:1"
         d="m 268.33269,-484.854 h -4.02088 l -0.42475,2.1003 0.70084,12.57072 h 2.38069 z"
         sodipodi:nodetypes="cccccc" />
      <path
         style="fill:none;stroke:#000000;stroke-width:0.704179px;stroke-linecap:butt;stroke-linejoin:miter;stroke-opacity:1"
         d="m 264.5879,-470.18298 v 2.32368 h 4.18615 v -0.86997 l -1.80546,-1.45371 z"
         id="path1286" />
      <path
         id="rect1293"
         style="font-variation-settings:normal;opacity:1;vector-effect:none;fill:none;fill-opacity:1;fill-rule:evenodd;stroke:#000000;stroke-width:0.704179;stroke-linecap:butt;stroke-linejoin:miter;stroke-miterlimit:4;stroke-dasharray:none;stroke-dashoffset:0;stroke-opacity:1;stop-color:#000000;stop-opacity:1"
         d="m 269.0003,-520.68286 h 1.3503 l 1.17908,1.23063 v 11.47234 h -2.52938 z"
         sodipodi:nodetypes="cccccc" />
      <path
         id="path1296"
         style="font-variation-settings:normal;opacity:1;vector-effect:none;fill:none;fill-opacity:1;fill-rule:evenodd;stroke:#000000;stroke-width:0.704179;stroke-linecap:butt;stroke-linejoin:miter;stroke-miterlimit:4;stroke-dasharray:none;stroke-dashoffset:0;stroke-opacity:1;stop-color:#000000;stop-opacity:1"
         d="m 271.26489,-499.18933 h -1.67909 l -0.65426,-8.79056 h 2.59814 z"
         sodipodi:nodetypes="ccccc" />
      <path
         style="display:inline;fill:none;stroke:#000000;stroke-width:0.704179px;stroke-linecap:butt;stroke-linejoin:miter;stroke-opacity:1"
         d="m 271.16881,-498.69077 0.87359,4.15262 -1.87483,0.28989 -1.37178,-0.53239 0.17565,-1.76684 0.59012,0.18259 0.32762,1.05102 0.78413,0.0821 0.11945,-0.70702 -1.42657,-1.26877 -0.0515,-1.60192 0.27111,-0.37984 h 1.67909 z"
         id="path1298"
         sodipodi:nodetypes="cccccccccccccc" />
      <path
         id="path1320"
         style="font-variation-settings:normal;opacity:1;vector-effect:none;fill:none;fill-opacity:1;fill-rule:evenodd;stroke:#000000;stroke-width:0.704179;stroke-linecap:butt;stroke-linejoin:miter;stroke-miterlimit:4;stroke-dasharray:none;stroke-dashoffset:0;stroke-opacity:1;stop-color:#000000;stop-opacity:1"
         d="m 256.85706,-520.68286 h -1.3503 l -1.17908,1.23063 v 11.47234 h 2.52938 z"
         sodipodi:nodetypes="cccccc" />
      <path
         id="path1322"
         style="font-variation-settings:normal;opacity:1;vector-effect:none;fill:none;fill-opacity:1;fill-rule:evenodd;stroke:#000000;stroke-width:0.704179;stroke-linecap:butt;stroke-linejoin:miter;stroke-miterlimit:4;stroke-dasharray:none;stroke-dashoffset:0;stroke-opacity:1;stop-color:#000000;stop-opacity:1"
         d="m 254.59247,-499.18933 h 1.67909 l 0.65426,-8.79056 h -2.59814 z"
         sodipodi:nodetypes="ccccc" />
      <path
         style="display:inline;fill:none;stroke:#000000;stroke-width:0.704179px;stroke-linecap:butt;stroke-linejoin:miter;stroke-opacity:1"
         d="m 254.68855,-498.69077 -0.87359,4.15262 1.87483,0.28989 1.37178,-0.53239 -0.17565,-1.76684 -0.59012,0.18259 -0.32762,1.05102 -0.78413,0.0821 -0.11945,-0.70702 1.42657,-1.26877 0.0515,-1.60192 -0.27111,-0.37984 h -1.67909 z"
         id="path1324"
         sodipodi:nodetypes="cccccccccccccc" />
      <path
         style="fill:none;stroke:#000000;stroke-width:0.704179px;stroke-linecap:butt;stroke-linejoin:miter;stroke-opacity:1"
         d="m 263.93233,-522.22424 1.16253,-1.26728 1.15986,-1.45462 0.0822,-3.43524 -0.50339,-1.70887 -0.96373,-0.97102 -1.95784,-0.40714 -1.95784,0.40714 -0.96373,0.97102 -0.50339,1.70887 0.0822,3.43524 1.15986,1.45462 1.16253,1.26728 1.02037,0.18295 z"
         id="path1326"
         sodipodi:nodetypes="ccccccccccccccc" />
    </g>
    <g
       id="g1552"
       transform="matrix(0.37638536,0,0,0.37508131,39.097288,260.89933)"
       style="display:inline;stroke-width:2.66147">
      <path
         id="path1330"
         style="font-variation-settings:normal;opacity:1;vector-effect:none;fill:none;fill-opacity:1;fill-rule:evenodd;stroke:#000000;stroke-width:0.704179;stroke-linecap:butt;stroke-linejoin:miter;stroke-miterlimit:4;stroke-dasharray:none;stroke-dashoffset:0;stroke-opacity:1;stop-color:#000000;stop-opacity:1"
         d="m 306.48719,-520.68286 3.98578,-0.82518 0.25475,-1.34018 h 3.77705 l 0.35057,1.34018 3.74072,0.82518 v 17.43563 h -12.10887 z"
         sodipodi:nodetypes="ccccccccc" />
      <path
         id="path1332"
         style="font-variation-settings:normal;opacity:1;vector-effect:none;fill:none;fill-opacity:1;fill-rule:evenodd;stroke:#000000;stroke-width:0.704179;stroke-linecap:butt;stroke-linejoin:miter;stroke-miterlimit:4;stroke-dasharray:none;stroke-dashoffset:0;stroke-opacity:1;stop-color:#000000;stop-opacity:1"
         d="m 306.85371,-505.31139 5.62931,2.06417 -2.71204,7.39613 -4.89934,9.40369 -3.86566,-1.41748 2.64967,-12.8968 z"
         sodipodi:nodetypes="ccccccc" />
      <path
         id="path1334"
         style="font-variation-settings:normal;opacity:1;vector-effect:none;fill:none;fill-opacity:1;fill-rule:evenodd;stroke:#000000;stroke-width:0.704179;stroke-linecap:butt;stroke-linejoin:miter;stroke-miterlimit:4;stroke-dasharray:none;stroke-dashoffset:0;stroke-opacity:1;stop-color:#000000;stop-opacity:1"
         d="m 318.47885,-503.24722 h -5.99583 v 7.87768 l 1.36245,10.51554 h 4.11735 l 1.95227,-13.02063 z"
         sodipodi:nodetypes="ccccccc" />
      <path
         id="path1336"
         style="font-variation-settings:normal;opacity:1;vector-effect:none;fill:none;fill-opacity:1;fill-rule:evenodd;stroke:#000000;stroke-width:0.704179;stroke-linecap:butt;stroke-linejoin:miter;stroke-miterlimit:4;stroke-dasharray:none;stroke-dashoffset:0;stroke-opacity:1;stop-color:#000000;stop-opacity:1"
         d="m 301.00598,-487.86488 3.95146,-0.74396 0.80602,1.98544 1.63716,12.48335 -2.33958,0.44049 z"
         sodipodi:nodetypes="cccccc" />
      <path
         style="fill:none;stroke:#000000;stroke-width:0.704179px;stroke-linecap:butt;stroke-linejoin:miter;stroke-opacity:1"
         d="m 307.40062,-474.14005 0.42994,2.28356 -4.11387,0.77454 -0.16097,-0.85495 1.50532,-1.76266 z"
         id="path1338" />
      <path
         id="path1340"
         style="font-variation-settings:normal;opacity:1;vector-effect:none;fill:none;fill-opacity:1;fill-rule:evenodd;stroke:#000000;stroke-width:0.704179;stroke-linecap:butt;stroke-linejoin:miter;stroke-miterlimit:4;stroke-dasharray:none;stroke-dashoffset:0;stroke-opacity:1;stop-color:#000000;stop-opacity:1"
         d="m 317.96282,-484.854 h -4.02088 l -0.42475,2.1003 0.70084,12.57072 h 2.38069 z"
         sodipodi:nodetypes="cccccc" />
      <path
         style="fill:none;stroke:#000000;stroke-width:0.704179px;stroke-linecap:butt;stroke-linejoin:miter;stroke-opacity:1"
         d="m 314.21803,-470.18298 v 2.32368 h 4.18615 v -0.86997 l -1.80546,-1.45371 z"
         id="path1342" />
      <path
         id="path1344"
         style="font-variation-settings:normal;opacity:1;vector-effect:none;fill:none;fill-opacity:1;fill-rule:evenodd;stroke:#000000;stroke-width:0.704179;stroke-linecap:butt;stroke-linejoin:miter;stroke-miterlimit:4;stroke-dasharray:none;stroke-dashoffset:0;stroke-opacity:1;stop-color:#000000;stop-opacity:1"
         d="m 318.44834,-519.20003 -0.0131,-1.35023 1.21916,-1.19094 11.4718,-0.11105 0.0245,2.52926 z"
         sodipodi:nodetypes="cccccc" />
      <path
         id="path1346"
         style="font-variation-settings:normal;opacity:1;vector-effect:none;fill:none;fill-opacity:1;fill-rule:evenodd;stroke:#000000;stroke-width:0.704179;stroke-linecap:butt;stroke-linejoin:miter;stroke-miterlimit:4;stroke-dasharray:none;stroke-dashoffset:0;stroke-opacity:1;stop-color:#000000;stop-opacity:1"
         d="m 339.91895,-521.67256 0.0163,1.67901 -8.78382,0.73932 -0.0251,-2.59802 z"
         sodipodi:nodetypes="ccccc" />
      <path
         style="display:inline;fill:none;stroke:#000000;stroke-width:0.704179px;stroke-linecap:butt;stroke-linejoin:miter;stroke-opacity:1"
         d="m 340.41841,-521.58131 4.14397,-0.91375 0.30803,1.87194 -0.51909,1.37687 -1.76846,-0.15854 0.17687,-0.59186 1.0478,-0.33778 0.0745,-0.78489 -0.70815,-0.1126 -1.2549,1.43879 -1.60134,0.067 -0.38245,-0.26742 -0.0163,-1.67901 z"
         id="path1348"
         sodipodi:nodetypes="cccccccccccccc" />
      <path
         id="path1350"
         style="font-variation-settings:normal;opacity:1;vector-effect:none;fill:none;fill-opacity:1;fill-rule:evenodd;stroke:#000000;stroke-width:0.704179;stroke-linecap:butt;stroke-linejoin:miter;stroke-miterlimit:4;stroke-dasharray:none;stroke-dashoffset:0;stroke-opacity:1;stop-color:#000000;stop-opacity:1"
         d="m 307.58265,-519.89338 -1.09546,-0.78948 -1.67607,0.30899 -6.70757,9.30715 2.05201,1.47886 z"
         sodipodi:nodetypes="cccccc" />
      <path
         id="path1352"
         style="font-variation-settings:normal;opacity:1;vector-effect:none;fill:none;fill-opacity:1;fill-rule:evenodd;stroke:#000000;stroke-width:0.704179;stroke-linecap:butt;stroke-linejoin:miter;stroke-miterlimit:4;stroke-dasharray:none;stroke-dashoffset:0;stroke-opacity:1;stop-color:#000000;stop-opacity:1"
         d="m 294.29611,-517.58813 -1.33929,1.01274 4.78015,7.40622 2.07236,-1.56707 z"
         sodipodi:nodetypes="ccccc" />
      <path
         style="display:inline;fill:none;stroke:#000000;stroke-width:0.704179px;stroke-linecap:butt;stroke-linejoin:miter;stroke-opacity:1"
         d="m 292.79649,-516.99686 -3.32461,-2.6371 1.25737,-1.42057 1.39553,-0.4666 0.99341,1.47164 -0.57068,0.23645 -0.92341,-0.59941 -0.65577,0.43769 0.3597,0.62029 1.90805,0.065 1.06284,1.19964 0.0339,0.46544 -1.29191,1.07251 z"
         id="path1354"
         sodipodi:nodetypes="cccccccccccccc" />
      <path
         style="fill:none;stroke:#000000;stroke-width:0.704179px;stroke-linecap:butt;stroke-linejoin:miter;stroke-opacity:1"
         d="m 313.56246,-522.22424 1.16253,-1.26728 1.15986,-1.45462 0.0822,-3.43524 -0.50339,-1.70887 -0.96373,-0.97102 -1.95784,-0.40714 -1.95784,0.40714 -0.96373,0.97102 -0.50339,1.70887 0.0822,3.43524 1.15986,1.45462 1.16253,1.26728 1.02037,0.18295 z"
         id="path1356"
         sodipodi:nodetypes="ccccccccccccccc" />
    </g>
  </g>
</svg>
