<?xml version="1.0" encoding="UTF-8" standalone="no"?>
<!-- Created with Inkscape (http://www.inkscape.org/) -->

<svg
   xmlns:dc="http://purl.org/dc/elements/1.1/"
   xmlns:cc="http://creativecommons.org/ns#"
   xmlns:rdf="http://www.w3.org/1999/02/22-rdf-syntax-ns#"
   xmlns:svg="http://www.w3.org/2000/svg"
   xmlns="http://www.w3.org/2000/svg"
   xmlns:sodipodi="http://sodipodi.sourceforge.net/DTD/sodipodi-0.dtd"
   xmlns:inkscape="http://www.inkscape.org/namespaces/inkscape"
   width="23.969358mm"
   height="12.0811mm"
   viewBox="0 0 23.969358 12.0811"
   version="1.1"
   id="svg86883"
   inkscape:version="0.92.5 (2060ec1f9f, 2020-04-08)"
   sodipodi:docname="trees.svg">
  <defs
     id="defs86877" />
  <sodipodi:namedview
     id="base"
     pagecolor="#ffffff"
     bordercolor="#666666"
     borderopacity="1.0"
     inkscape:pageopacity="0.0"
     inkscape:pageshadow="2"
     inkscape:zoom="0.7"
     inkscape:cx="-191.72987"
     inkscape:cy="53.999636"
     inkscape:document-units="mm"
     inkscape:current-layer="layer1"
     showgrid="false"
     fit-margin-top="0"
     fit-margin-left="0"
     fit-margin-right="0"
     fit-margin-bottom="0"
     inkscape:window-width="1920"
     inkscape:window-height="1007"
     inkscape:window-x="0"
     inkscape:window-y="0"
     inkscape:window-maximized="1" />
  <metadata
     id="metadata86880">
    <rdf:RDF>
      <cc:Work
         rdf:about="">
        <dc:format>image/svg+xml</dc:format>
        <dc:type
           rdf:resource="http://purl.org/dc/dcmitype/StillImage" />
        <dc:title></dc:title>
      </cc:Work>
    </rdf:RDF>
  </metadata>
  <g
     inkscape:label="Calque 1"
     inkscape:groupmode="layer"
     id="layer1"
     transform="translate(-64.366511,-136.74516)">
    <g
       style="display:inline"
       transform="matrix(-0.72042999,0,-0.04290594,0.72042999,-41.386667,491.91633)"
       id="g86657">
      <ellipse
         style="fill:#33c833;fill-opacity:1;stroke:none;stroke-width:0.03675827;stroke-miterlimit:4;stroke-dasharray:none;stroke-opacity:1"
         id="ellipse86651"
         cx="153.46747"
         cy="-488.40924"
         transform="matrix(-1,0,-0.05945066,0.99823125,0,0)"
         rx="3.27859"
         ry="5.4631591" />
      <path
         inkscape:connector-curvature="0"
         style="fill:#248d24;fill-opacity:1;stroke:none;stroke-width:0.09999999;stroke-miterlimit:4;stroke-dasharray:none;stroke-opacity:1"
         d="m 587.11523,77.685547 a 8.9272236,14.849243 9.3068578 0 1 1.61133,12.285156 8.9272236,14.849243 9.3068578 0 1 -10.43164,13.269527 8.9272235,14.849243 1.3150579e-6 0 0 5.33399,2.96485 8.9272235,14.849243 1.3150579e-6 0 0 8.92578,-14.849611 8.9272235,14.849243 1.3150579e-6 0 0 -5.43946,-13.669922 z"
         transform="matrix(-0.36725752,0,-0.02187239,0.36725752,91.908796,-521.09621)"
         id="path86653" />
      <rect
         style="fill:#000000;fill-opacity:1;stroke:none;stroke-width:0.03210685;stroke-miterlimit:4;stroke-dasharray:none;stroke-opacity:1"
         id="rect86655"
         width="0.97383857"
         height="1.438957"
         x="152.97237"
         y="-483.01923"
         transform="matrix(-1,0,-0.05945066,0.99823125,0,0)" />
    </g>
    <ellipse
       ry="3.191359"
       rx="2.3619945"
       transform="matrix(1,0,-0.91191995,0.41036813,0,0)"
       cy="356.90292"
       cx="395.83325"
       id="ellipse86782"
       style="display:inline;fill:#030a03;fill-opacity:0.30882353;stroke:none;stroke-width:0.02384607;stroke-miterlimit:4;stroke-dasharray:none;stroke-opacity:1" />
    <g
       style="display:inline"
       transform="matrix(-0.72042999,0,-0.04290594,0.72042999,-43.834067,494.42987)"
       id="g86641">
      <ellipse
         style="fill:#33c833;fill-opacity:1;stroke:none;stroke-width:0.03675827;stroke-miterlimit:4;stroke-dasharray:none;stroke-opacity:1"
         id="path86629"
         cx="153.46747"
         cy="-488.40924"
         transform="matrix(-1,0,-0.05945066,0.99823125,0,0)"
         rx="3.27859"
         ry="5.4631591" />
      <path
         inkscape:connector-curvature="0"
         style="fill:#248d24;fill-opacity:1;stroke:none;stroke-width:0.09999999;stroke-miterlimit:4;stroke-dasharray:none;stroke-opacity:1"
         d="m 587.11523,77.685547 a 8.9272236,14.849243 9.3068578 0 1 1.61133,12.285156 8.9272236,14.849243 9.3068578 0 1 -10.43164,13.269527 8.9272235,14.849243 1.3150579e-6 0 0 5.33399,2.96485 8.9272235,14.849243 1.3150579e-6 0 0 8.92578,-14.849611 8.9272235,14.849243 1.3150579e-6 0 0 -5.43946,-13.669922 z"
         transform="matrix(-0.36725752,0,-0.02187239,0.36725752,91.908796,-521.09621)"
         id="ellipse86631" />
      <rect
         style="fill:#000000;fill-opacity:1;stroke:none;stroke-width:0.03210685;stroke-miterlimit:4;stroke-dasharray:none;stroke-opacity:1"
         id="rect86636"
         width="0.97383857"
         height="1.438957"
         x="152.97237"
         y="-483.01923"
         transform="matrix(-1,0,-0.05945066,0.99823125,0,0)" />
    </g>
    <ellipse
       style="display:inline;fill:#030a03;fill-opacity:0.30882353;stroke:none;stroke-width:0.02384607;stroke-miterlimit:4;stroke-dasharray:none;stroke-opacity:1"
       id="ellipse86765"
       cx="401.68353"
       cy="358.67606"
       transform="matrix(1,0,-0.91191995,0.41036813,0,0)"
       rx="2.3619945"
       ry="3.191359" />
    <g
       style="display:inline"
       id="g86763"
       transform="translate(-87.464307,548.39569)">
      <ellipse
         style="fill:#030a03;fill-opacity:0.30882353;stroke:none;stroke-width:0.02384607;stroke-miterlimit:4;stroke-dasharray:none;stroke-opacity:1"
         id="ellipse86753"
         cx="-728.1593"
         cy="-980.41473"
         transform="matrix(1,0,-0.91191995,0.41036813,0,0)"
         rx="2.3619945"
         ry="3.191359" />
      <rect
         style="fill:#030a03;fill-opacity:0.30882353;stroke:none;stroke-width:0.02082857;stroke-miterlimit:4;stroke-dasharray:none;stroke-opacity:1"
         id="rect86755"
         width="0.70158255"
         height="0.84058118"
         x="-728.51605"
         y="-977.26611"
         transform="matrix(1,0,-0.91191995,0.41036813,0,0)" />
      <ellipse
         ry="3.9288623"
         rx="2.3619945"
         cy="-405.60501"
         cx="162.26259"
         id="ellipse86757"
         style="fill:#33c833;fill-opacity:1;stroke:none;stroke-width:0.02645833;stroke-miterlimit:4;stroke-dasharray:none;stroke-opacity:1" />
      <path
         id="path86759"
         d="m 163.1852,-409.22176 a 2.3619946,3.9288623 9.3068578 0 1 0.42633,3.25045 2.3619946,3.9288623 9.3068578 0 1 -2.76004,3.51089 2.3619946,3.9288623 1.3150579e-6 0 0 1.41129,0.78445 2.3619946,3.9288623 1.3150579e-6 0 0 2.36161,-3.92895 2.3619946,3.9288623 1.3150579e-6 0 0 -1.43919,-3.61684 z"
         style="fill:#248d24;fill-opacity:1;stroke:none;stroke-width:0.02645833;stroke-miterlimit:4;stroke-dasharray:none;stroke-opacity:1"
         inkscape:connector-curvature="0" />
      <rect
         y="-401.72876"
         x="161.90591"
         height="1.0348341"
         width="0.70158255"
         id="rect86761"
         style="fill:#000000;fill-opacity:1;stroke:none;stroke-width:0.02311027;stroke-miterlimit:4;stroke-dasharray:none;stroke-opacity:1" />
    </g>
    <rect
       style="display:inline;fill:#030a03;fill-opacity:0.30882353;stroke:none;stroke-width:0.02082857;stroke-miterlimit:4;stroke-dasharray:none;stroke-opacity:1"
       id="rect86767"
       width="0.70158249"
       height="0.84058112"
       x="401.32678"
       y="361.82468"
       transform="matrix(1,0,-0.91191995,0.41036813,0,0)" />
    <ellipse
       ry="3.9288623"
       rx="2.3619945"
       cy="143.91518"
       cx="70.96183"
       id="ellipse86769"
       style="display:inline;fill:#33c833;fill-opacity:1;stroke:none;stroke-width:0.02645833;stroke-miterlimit:4;stroke-dasharray:none;stroke-opacity:1" />
    <path
       style="display:inline;fill:#121212;fill-opacity:0.30980392;stroke:none;stroke-width:0.02645833;stroke-miterlimit:4;stroke-dasharray:none;stroke-opacity:1"
       d="m 73.256137,141.81743 a 3.8909138,1.8938308 80.909042 0 0 -0.79221,0.40617 2.3619945,3.9288622 0 0 0 -0.0274,0.56689 2.3619945,3.9288622 0 0 0 2.36161,3.92896 2.3619945,3.9288622 0 0 0 0.90279,-0.30179 3.8909138,1.8938308 80.909042 0 0 -0.0568,-0.76843 3.8909138,1.8938308 80.909042 0 0 -2.38796,-3.8318 z"
       id="ellipse86786"
       inkscape:connector-curvature="0" />
    <path
       id="path86771"
       d="m 71.884447,140.29842 a 2.3619946,3.9288622 9.3068578 0 1 0.42633,3.25045 2.3619946,3.9288622 9.3068578 0 1 -2.76004,3.51089 2.3619946,3.9288622 1.3150579e-6 0 0 1.41129,0.78445 2.3619946,3.9288622 1.3150579e-6 0 0 2.36161,-3.92895 2.3619946,3.9288622 1.3150579e-6 0 0 -1.43919,-3.61684 z"
       style="display:inline;fill:#248d24;fill-opacity:1;stroke:none;stroke-width:0.02645833;stroke-miterlimit:4;stroke-dasharray:none;stroke-opacity:1"
       inkscape:connector-curvature="0" />
    <rect
       y="147.79143"
       x="70.605156"
       height="1.0348341"
       width="0.70158249"
       id="rect86773"
       style="display:inline;fill:#000000;fill-opacity:1;stroke:none;stroke-width:0.02311027;stroke-miterlimit:4;stroke-dasharray:none;stroke-opacity:1" />
    <g
       style="display:inline"
       id="g86751"
       transform="translate(-81.312737,548.32955)">
      <ellipse
         ry="3.191359"
         rx="2.3619945"
         transform="matrix(1,0,-0.91191995,0.41036813,0,0)"
         cy="-980.41473"
         cx="-728.1593"
         id="ellipse86725"
         style="fill:#030a03;fill-opacity:0.30882353;stroke:none;stroke-width:0.02384607;stroke-miterlimit:4;stroke-dasharray:none;stroke-opacity:1" />
      <rect
         transform="matrix(1,0,-0.91191995,0.41036813,0,0)"
         y="-977.26611"
         x="-728.51605"
         height="0.84058118"
         width="0.70158255"
         id="rect86727"
         style="fill:#030a03;fill-opacity:0.30882353;stroke:none;stroke-width:0.02082857;stroke-miterlimit:4;stroke-dasharray:none;stroke-opacity:1" />
      <ellipse
         style="fill:#33c833;fill-opacity:1;stroke:none;stroke-width:0.02645833;stroke-miterlimit:4;stroke-dasharray:none;stroke-opacity:1"
         id="ellipse86667"
         cx="162.26259"
         cy="-405.60501"
         rx="2.3619945"
         ry="3.9288623" />
      <path
         inkscape:connector-curvature="0"
         style="fill:#248d24;fill-opacity:1;stroke:none;stroke-width:0.02645833;stroke-miterlimit:4;stroke-dasharray:none;stroke-opacity:1"
         d="m 163.1852,-409.22176 a 2.3619946,3.9288623 9.3068578 0 1 0.42633,3.25045 2.3619946,3.9288623 9.3068578 0 1 -2.76004,3.51089 2.3619946,3.9288623 1.3150579e-6 0 0 1.41129,0.78445 2.3619946,3.9288623 1.3150579e-6 0 0 2.36161,-3.92895 2.3619946,3.9288623 1.3150579e-6 0 0 -1.43919,-3.61684 z"
         id="path86669" />
      <rect
         style="fill:#000000;fill-opacity:1;stroke:none;stroke-width:0.02311027;stroke-miterlimit:4;stroke-dasharray:none;stroke-opacity:1"
         id="rect86671"
         width="0.70158255"
         height="1.0348341"
         x="161.90591"
         y="-401.72876" />
    </g>
  </g>
</svg>
